<mxfile host="app.diagrams.net" agent="Mozilla/5.0 (Windows NT 10.0; Win64; x64) AppleWebKit/537.36 (KHTML, like Gecko) Chrome/129.0.0.0 Safari/537.36" version="24.7.17">
  <diagram name="Halaman-1" id="qpP8nMGTOP2TduD9SjAR">
    <mxGraphModel dx="1050" dy="557" grid="1" gridSize="10" guides="1" tooltips="1" connect="1" arrows="1" fold="1" page="1" pageScale="1" pageWidth="827" pageHeight="1169" math="0" shadow="0">
      <root>
        <mxCell id="0" />
        <mxCell id="1" parent="0" />
        <mxCell id="oMTN2TJ2p2E4PHVKTs3A-27" value="Definisikan pin untuk segmen a, b, c, d, e, f, g" style="whiteSpace=wrap;strokeWidth=2;" vertex="1" parent="1">
          <mxGeometry x="190" y="918" width="240" height="66" as="geometry" />
        </mxCell>
        <mxCell id="oMTN2TJ2p2E4PHVKTs3A-28" value="Definisikan array angka 0 sampai 9 dalam biner" style="whiteSpace=wrap;strokeWidth=2;" vertex="1" parent="1">
          <mxGeometry x="190" y="1034" width="241" height="66" as="geometry" />
        </mxCell>
        <mxCell id="oMTN2TJ2p2E4PHVKTs3A-29" value="Buat fungsi tampilkan angka" style="whiteSpace=wrap;strokeWidth=2;" vertex="1" parent="1">
          <mxGeometry x="202" y="1150" width="216" height="66" as="geometry" />
        </mxCell>
        <mxCell id="oMTN2TJ2p2E4PHVKTs3A-30" value="Mulai fungsi setup" style="whiteSpace=wrap;strokeWidth=2;" vertex="1" parent="1">
          <mxGeometry x="215" y="1266" width="190" height="48" as="geometry" />
        </mxCell>
        <mxCell id="oMTN2TJ2p2E4PHVKTs3A-31" value="Atur semua pin sebagai OUTPUT" style="whiteSpace=wrap;strokeWidth=2;" vertex="1" parent="1">
          <mxGeometry x="197" y="1365" width="227" height="66" as="geometry" />
        </mxCell>
        <mxCell id="oMTN2TJ2p2E4PHVKTs3A-32" value="Masuk ke fungsi loop" style="whiteSpace=wrap;strokeWidth=2;" vertex="1" parent="1">
          <mxGeometry x="206" y="1481" width="208" height="48" as="geometry" />
        </mxCell>
        <mxCell id="oMTN2TJ2p2E4PHVKTs3A-33" value="Apakah i &amp;lt; 10?" style="rhombus;strokeWidth=2;whiteSpace=wrap;" vertex="1" parent="1">
          <mxGeometry x="164" y="1579" width="172" height="172" as="geometry" />
        </mxCell>
        <mxCell id="oMTN2TJ2p2E4PHVKTs3A-34" value="Tampilkan angka saat ini" style="whiteSpace=wrap;strokeWidth=2;" vertex="1" parent="1">
          <mxGeometry x="20" y="1823" width="237" height="48" as="geometry" />
        </mxCell>
        <mxCell id="oMTN2TJ2p2E4PHVKTs3A-35" value="Tunggu 1 detik" style="whiteSpace=wrap;strokeWidth=2;" vertex="1" parent="1">
          <mxGeometry x="56" y="1922" width="166" height="48" as="geometry" />
        </mxCell>
        <mxCell id="oMTN2TJ2p2E4PHVKTs3A-36" value="Tambah 1 ke variabel i" style="whiteSpace=wrap;strokeWidth=2;" vertex="1" parent="1">
          <mxGeometry x="199" y="2020" width="223" height="48" as="geometry" />
        </mxCell>
        <mxCell id="oMTN2TJ2p2E4PHVKTs3A-38" value="" style="curved=1;startArrow=none;endArrow=block;exitX=0.5;exitY=1.01;entryX=0.5;entryY=0.01;rounded=0;" edge="1" parent="1" target="oMTN2TJ2p2E4PHVKTs3A-27">
          <mxGeometry relative="1" as="geometry">
            <Array as="points" />
            <mxPoint x="310.5" y="868" as="sourcePoint" />
          </mxGeometry>
        </mxCell>
        <mxCell id="oMTN2TJ2p2E4PHVKTs3A-39" value="" style="curved=1;startArrow=none;endArrow=block;exitX=0.5;exitY=1.01;entryX=0.5;entryY=0.01;rounded=0;" edge="1" parent="1" source="oMTN2TJ2p2E4PHVKTs3A-27" target="oMTN2TJ2p2E4PHVKTs3A-28">
          <mxGeometry relative="1" as="geometry">
            <Array as="points" />
          </mxGeometry>
        </mxCell>
        <mxCell id="oMTN2TJ2p2E4PHVKTs3A-40" value="" style="curved=1;startArrow=none;endArrow=block;exitX=0.5;exitY=1.01;entryX=0.5;entryY=0.01;rounded=0;" edge="1" parent="1" source="oMTN2TJ2p2E4PHVKTs3A-28" target="oMTN2TJ2p2E4PHVKTs3A-29">
          <mxGeometry relative="1" as="geometry">
            <Array as="points" />
          </mxGeometry>
        </mxCell>
        <mxCell id="oMTN2TJ2p2E4PHVKTs3A-41" value="" style="curved=1;startArrow=none;endArrow=block;exitX=0.5;exitY=1.01;entryX=0.5;entryY=0.01;rounded=0;" edge="1" parent="1" source="oMTN2TJ2p2E4PHVKTs3A-29" target="oMTN2TJ2p2E4PHVKTs3A-30">
          <mxGeometry relative="1" as="geometry">
            <Array as="points" />
          </mxGeometry>
        </mxCell>
        <mxCell id="oMTN2TJ2p2E4PHVKTs3A-42" value="" style="curved=1;startArrow=none;endArrow=block;exitX=0.5;exitY=1.02;entryX=0.5;entryY=0;rounded=0;" edge="1" parent="1" source="oMTN2TJ2p2E4PHVKTs3A-30" target="oMTN2TJ2p2E4PHVKTs3A-31">
          <mxGeometry relative="1" as="geometry">
            <Array as="points" />
          </mxGeometry>
        </mxCell>
        <mxCell id="oMTN2TJ2p2E4PHVKTs3A-43" value="" style="curved=1;startArrow=none;endArrow=block;exitX=0.5;exitY=1;entryX=0.5;entryY=0;rounded=0;" edge="1" parent="1" source="oMTN2TJ2p2E4PHVKTs3A-31" target="oMTN2TJ2p2E4PHVKTs3A-32">
          <mxGeometry relative="1" as="geometry">
            <Array as="points" />
          </mxGeometry>
        </mxCell>
        <mxCell id="oMTN2TJ2p2E4PHVKTs3A-44" value="" style="curved=1;startArrow=none;endArrow=block;exitX=0.36;exitY=1;entryX=0.5;entryY=0;rounded=0;" edge="1" parent="1" source="oMTN2TJ2p2E4PHVKTs3A-32" target="oMTN2TJ2p2E4PHVKTs3A-33">
          <mxGeometry relative="1" as="geometry">
            <Array as="points">
              <mxPoint x="250" y="1554" />
            </Array>
          </mxGeometry>
        </mxCell>
        <mxCell id="oMTN2TJ2p2E4PHVKTs3A-45" value="|Ya|" style="curved=1;startArrow=none;endArrow=block;exitX=0.04;exitY=1;entryX=0.5;entryY=0;rounded=0;" edge="1" parent="1" source="oMTN2TJ2p2E4PHVKTs3A-33" target="oMTN2TJ2p2E4PHVKTs3A-34">
          <mxGeometry relative="1" as="geometry">
            <Array as="points">
              <mxPoint x="138" y="1787" />
            </Array>
          </mxGeometry>
        </mxCell>
        <mxCell id="oMTN2TJ2p2E4PHVKTs3A-46" value="" style="curved=1;startArrow=none;endArrow=block;exitX=0.5;exitY=1.01;entryX=0.5;entryY=-0.01;rounded=0;" edge="1" parent="1" source="oMTN2TJ2p2E4PHVKTs3A-34" target="oMTN2TJ2p2E4PHVKTs3A-35">
          <mxGeometry relative="1" as="geometry">
            <Array as="points" />
          </mxGeometry>
        </mxCell>
        <mxCell id="oMTN2TJ2p2E4PHVKTs3A-47" value="" style="curved=1;startArrow=none;endArrow=block;exitX=0.5;exitY=1;entryX=0.12;entryY=0;rounded=0;" edge="1" parent="1" source="oMTN2TJ2p2E4PHVKTs3A-35" target="oMTN2TJ2p2E4PHVKTs3A-36">
          <mxGeometry relative="1" as="geometry">
            <Array as="points">
              <mxPoint x="138" y="1995" />
            </Array>
          </mxGeometry>
        </mxCell>
        <mxCell id="oMTN2TJ2p2E4PHVKTs3A-48" value="" style="curved=1;startArrow=none;endArrow=block;exitX=0.84;exitY=0;entryX=0.87;entryY=1;rounded=0;" edge="1" parent="1" source="oMTN2TJ2p2E4PHVKTs3A-36" target="oMTN2TJ2p2E4PHVKTs3A-32">
          <mxGeometry relative="1" as="geometry">
            <Array as="points">
              <mxPoint x="467" y="1995" />
              <mxPoint x="467" y="1554" />
            </Array>
          </mxGeometry>
        </mxCell>
        <mxCell id="oMTN2TJ2p2E4PHVKTs3A-49" value="|Tidak|" style="curved=1;startArrow=none;endArrow=block;exitX=0.96;exitY=1;entryX=0.5;entryY=0;rounded=0;" edge="1" parent="1" source="oMTN2TJ2p2E4PHVKTs3A-33" target="oMTN2TJ2p2E4PHVKTs3A-51">
          <mxGeometry relative="1" as="geometry">
            <Array as="points">
              <mxPoint x="361" y="1787" />
            </Array>
            <mxPoint x="361.5" y="1823" as="targetPoint" />
          </mxGeometry>
        </mxCell>
        <mxCell id="oMTN2TJ2p2E4PHVKTs3A-50" value="Mulai" style="ellipse;whiteSpace=wrap;html=1;" vertex="1" parent="1">
          <mxGeometry x="250" y="790" width="120" height="80" as="geometry" />
        </mxCell>
        <mxCell id="oMTN2TJ2p2E4PHVKTs3A-51" value="Selesai" style="ellipse;whiteSpace=wrap;html=1;" vertex="1" parent="1">
          <mxGeometry x="304" y="1800" width="120" height="80" as="geometry" />
        </mxCell>
      </root>
    </mxGraphModel>
  </diagram>
</mxfile>
